<?xml version="1.0" encoding="UTF-8"?>
<svg width="28px" height="20px" viewBox="0 0 28 20" version="1.1" xmlns="http://www.w3.org/2000/svg" xmlns:xlink="http://www.w3.org/1999/xlink">
    <title>icon/menu_expand</title>
    <g id="7.-Franchise" stroke="none" stroke-width="1" fill="none" fill-rule="evenodd">
        <g id="iPhone-11" transform="translate(-18.000000, -78.000000)" fill="#000000">
            <g id="Group-2">
                <g id="icon/menu_expand" transform="translate(16.000000, 72.000000)">
                    <path d="M14.6666667,22.6666667 C15.4030463,22.6666667 16,23.2636203 16,24 C16,24.7363797 15.4030463,25.3333333 14.6666667,25.3333333 L4,25.3333333 C3.26362033,25.3333333 2.66666667,24.7363797 2.66666667,24 C2.66666667,23.2636203 3.26362033,22.6666667 4,22.6666667 L14.6666667,22.6666667 Z M28,14.6666667 C28.7363797,14.6666667 29.3333333,15.2636203 29.3333333,16 C29.3333333,16.7363797 28.7363797,17.3333333 28,17.3333333 L4,17.3333333 C3.26362033,17.3333333 2.66666667,16.7363797 2.66666667,16 C2.66666667,15.2636203 3.26362033,14.6666667 4,14.6666667 L28,14.6666667 Z M21.3333333,6.66666667 C22.069713,6.66666667 22.6666667,7.26362033 22.6666667,8 C22.6666667,8.73637967 22.069713,9.33333333 21.3333333,9.33333333 L4,9.33333333 C3.26362033,9.33333333 2.66666667,8.73637967 2.66666667,8 C2.66666667,7.26362033 3.26362033,6.66666667 4,6.66666667 L21.3333333,6.66666667 Z" id="icon"></path>
                </g>
            </g>
        </g>
    </g>
</svg>